<?xml version="1.0" encoding="UTF-8" standalone="no"?>
<!-- Created with Inkscape (http://www.inkscape.org/) -->

<svg
   width="2248"
   height="1152"
   viewBox="0 0 594.78331 304.8"
   version="1.1"
   id="svg5"
   xml:space="preserve"
   inkscape:version="1.2.2 (732a01da63, 2022-12-09)"
   sodipodi:docname="Banner_new.svg"
   inkscape:export-filename="Banner.png"
   inkscape:export-xdpi="96"
   inkscape:export-ydpi="96"
   xmlns:inkscape="http://www.inkscape.org/namespaces/inkscape"
   xmlns:sodipodi="http://sodipodi.sourceforge.net/DTD/sodipodi-0.dtd"
   xmlns:xlink="http://www.w3.org/1999/xlink"
   xmlns="http://www.w3.org/2000/svg"
   xmlns:svg="http://www.w3.org/2000/svg"><sodipodi:namedview
     id="namedview7"
     pagecolor="#ffffff"
     bordercolor="#ffffff"
     borderopacity="1"
     inkscape:showpageshadow="2"
     inkscape:pageopacity="1"
     inkscape:pagecheckerboard="0"
     inkscape:deskcolor="#d1d1d1"
     inkscape:document-units="mm"
     showgrid="false"
     inkscape:zoom="0.32"
     inkscape:cx="1104.6875"
     inkscape:cy="401.5625"
     inkscape:window-width="1920"
     inkscape:window-height="991"
     inkscape:window-x="-9"
     inkscape:window-y="-9"
     inkscape:window-maximized="1"
     inkscape:current-layer="layer4" /><defs
     id="defs2"><linearGradient
       id="linearGradient10595"
       inkscape:swatch="solid"><stop
         style="stop-color:#000000;stop-opacity:1;"
         offset="0"
         id="stop10593" /></linearGradient><color-profile
       name="Agfa-:-Swop-Standard"
       xlink:href="../../../../../../WINDOWS/system32/spool/drivers/color/RSWOP.icm"
       id="color-profile11410" /><color-profile
       name="_06A6"
       xlink:href="../../../../../../WINDOWS/system32/spool/drivers/color/Dell_Inspiron_15_7510_FHD_LGD06A6.icm"
       id="color-profile11412" /><inkscape:path-effect
       effect="bspline"
       id="path-effect11043"
       is_visible="true"
       lpeversion="1"
       weight="33.333333"
       steps="2"
       helper_size="0"
       apply_no_weight="true"
       apply_with_weight="true"
       only_selected="false" /><inkscape:path-effect
       effect="bspline"
       id="path-effect10985"
       is_visible="true"
       lpeversion="1"
       weight="33.333333"
       steps="2"
       helper_size="0"
       apply_no_weight="true"
       apply_with_weight="true"
       only_selected="false" /><inkscape:path-effect
       effect="bspline"
       id="path-effect8445"
       is_visible="true"
       lpeversion="1"
       weight="33.333333"
       steps="2"
       helper_size="0"
       apply_no_weight="true"
       apply_with_weight="true"
       only_selected="false" /><inkscape:path-effect
       effect="bspline"
       id="path-effect7326"
       is_visible="true"
       lpeversion="1"
       weight="33.333333"
       steps="2"
       helper_size="0"
       apply_no_weight="true"
       apply_with_weight="true"
       only_selected="false" /><inkscape:path-effect
       effect="bspline"
       id="path-effect7322"
       is_visible="true"
       lpeversion="1"
       weight="33.333333"
       steps="2"
       helper_size="0"
       apply_no_weight="true"
       apply_with_weight="true"
       only_selected="false" /><linearGradient
       id="linearGradient4519"
       inkscape:swatch="solid"><stop
         style="stop-color:#d3c6bb;stop-opacity:1;"
         offset="0"
         id="stop4517" /></linearGradient><linearGradient
       id="linearGradient2028"
       inkscape:swatch="solid"><stop
         style="stop-color:#000000;stop-opacity:1;"
         offset="0"
         id="stop2026" /></linearGradient></defs><g
     inkscape:groupmode="layer"
     id="layer4"
     inkscape:label="Layer 3"><rect
       style="display:inline;fill:#ebefe6;fill-opacity:1;stroke:#ebefe6;stroke-width:1.12841;stroke-dasharray:none;stroke-opacity:1"
       id="rect9036"
       width="594.78998"
       height="304.79999"
       x="0"
       y="0" /></g><g
     inkscape:groupmode="layer"
     id="layer3"
     inkscape:label="Layer 2"
     style="display:inline"><ellipse
       style="fill:none;fill-opacity:1;stroke:#d3c6bb;stroke-width:8.09663;stroke-dasharray:none;stroke-opacity:1"
       id="path1470"
       cx="300.70941"
       cy="157.56282"
       rx="153.00571"
       ry="64.023689" /><rect
       style="opacity:1;fill:#ebefe6;fill-opacity:1;stroke:#ebefe6;stroke-width:2.03886;stroke-dasharray:none;stroke-opacity:1"
       id="rect22239"
       width="29.788462"
       height="28.597132"
       x="344.32901"
       y="80.022865" /><path
       style="fill:#d3c6bb;fill-opacity:1;stroke:#d3c6bb;stroke-width:3.09548;stroke-dasharray:none;stroke-opacity:1"
       id="path10894"
       d="m 347.94048,92.504343 c -1.18527,-0.82728 -2.45484,-1.518864 -3.72398,-2.206224 -1.20691,-0.640414 -2.43537,-1.238946 -3.6403,-1.883098 -0.51841,-0.277153 -0.65816,-0.359079 -1.15405,-0.638223 -0.81691,-0.484037 -1.64838,-0.942694 -2.46948,-1.419454 -0.21711,-0.1183 -0.42332,-0.254825 -0.63405,-0.383819 -0.088,-0.05385 -0.22706,-0.117636 -0.30483,-0.196068 -0.45141,-0.349347 -0.91488,-0.682604 -1.3787,-1.015153 -0.39897,-0.286355 -0.82072,-0.538393 -1.23315,-0.804189 -2.60563,-1.676147 -4.97607,2.008708 -2.37046,3.684845 v 0 c 0.35108,0.22554 0.70934,0.440165 1.05081,0.680293 0.45586,0.326809 0.91059,0.655221 1.35483,0.997867 0.0951,0.0668 0.18883,0.135607 0.28526,0.200447 0.0802,0.05386 0.19783,0.120711 0.28281,0.172855 0.24838,0.152251 0.49293,0.310839 0.74784,0.452143 0.83844,0.486581 1.68695,0.95561 2.52139,1.449136 0.54711,0.307466 0.69045,0.391649 1.26102,0.696473 1.19022,0.635812 2.40251,1.228771 3.5955,1.859154 1.15147,0.622819 2.30541,1.245969 3.37918,1.998564 2.57777,1.71853 5.00815,-1.927045 2.43036,-3.645571 z" /><circle
       id="path10896"
       style="fill:#d3c6bb;stroke:#d3c6bb;stroke-width:0.579627"
       cx="341.25232"
       cy="87.863007"
       r="0.039633062" /><path
       style="fill:#d3c6bb;fill-opacity:1;stroke:#d3c6bb;stroke-width:3.09728;stroke-dasharray:none;stroke-opacity:1"
       id="path10894-6"
       d="m 347.90135,97.231192 c -1.18524,0.82827 -2.45477,1.52068 -3.72389,2.20886 -1.20687,0.641168 -2.43532,1.240398 -3.64023,1.885328 -0.51836,0.27747 -0.65811,0.35951 -1.15401,0.63899 -0.81689,0.48462 -1.64835,0.9438 -2.46944,1.42113 -0.2171,0.11853 -0.42328,0.25514 -0.63401,0.38428 -0.088,0.0539 -0.22704,0.11786 -0.30485,0.1965 -0.45136,0.34978 -0.91483,0.68343 -1.37865,1.01637 -0.39897,0.28668 -0.82067,0.53903 -1.23312,0.80513 -2.60557,1.67813 -4.97595,-2.0111 -2.37039,-3.68923 v 0 c 0.35106,-0.22575 0.70931,-0.44067 1.05077,-0.68108 0.45584,-0.32721 0.91058,-0.65601 1.35481,-0.99907 0.0951,-0.067 0.18884,-0.13561 0.28525,-0.20067 0.0802,-0.0539 0.19783,-0.12093 0.28281,-0.17307 0.24835,-0.152468 0.4929,-0.311188 0.74781,-0.452668 0.83841,-0.48715 1.68692,-0.95675 2.52133,-1.45084 0.54711,-0.30784 0.69045,-0.39215 1.26099,-0.69731 1.19018,-0.63658 2.40245,-1.23025 3.59541,-1.86137 1.15147,-0.62356 2.30538,-1.247451 3.3791,-2.000956 2.5777,-1.720561 5.00804,1.929348 2.43031,3.649906 z" /><circle
       id="path11051"
       style="fill:#d3c6bb;stroke:#d3c6bb;stroke-width:0.579627"
       cx="376.34216"
       cy="96.610336"
       r="0.025441086" /><path
       style="fill:#d3c6bb;fill-opacity:1;stroke:#d3c6bb;stroke-width:2.8269;stroke-dasharray:none;stroke-opacity:1"
       id="path11059"
       d="m 374.86764,104.42897 c 0.0362,0 0.0736,0 0.10992,0 0.0521,-0.0366 -0.0414,0.007 -0.0313,0.011 0.0547,0.011 0.11037,0.0197 0.16518,0.0276 3.26814,0.54907 3.93243,-4.852978 0.66436,-5.401998 v 0 c -0.3011,-0.0504 -0.6033,-0.10385 -0.9086,-0.0938 -3.30168,0 -3.30168,5.457558 0,5.457558 z" /><circle
       id="path11061"
       style="fill:#d3c6bb;stroke:#d3c6bb;stroke-width:0.579627"
       cx="374.05322"
       cy="93.749191"
       r="0.021966118" /><rect
       style="fill:#000000;fill-opacity:0;stroke:#000000;stroke-width:2.4536;stroke-dasharray:none;stroke-opacity:0"
       id="rect19827"
       width="34.763062"
       height="29.756039"
       x="341.86514"
       y="82.233017" /><path
       style="fill:#000000;fill-opacity:0;stroke:#000000;stroke-width:2.4536;stroke-dasharray:none;stroke-opacity:0"
       id="path19943"
       d="m 345.70498,96.622342 c 1.49022,0.96924 3.02948,1.85541 4.57622,2.73021 2.45883,1.371228 4.94166,2.698298 7.43881,3.998228 1.98999,1.03363 3.98384,2.06029 5.99295,3.05639 1.18047,0.58527 1.83376,0.92883 3.08118,1.38293 0.55356,0.20155 1.12233,0.35864 1.68348,0.53798 0.68968,0.16364 1.37586,0.34257 2.06898,0.49076 1.11683,0.23872 3.44315,0.656 4.58294,0.84259 0.8946,0.14656 3.01962,0.4682 3.98575,0.56449 0.52496,0.0523 1.05288,0.069 1.57937,0.1034 1.80791,0.004 3.28126,0.10694 4.55128,-1.47251 0.25881,-0.32181 0.44057,-0.71582 0.53331,-1.11825 0.10672,-0.46348 0.0353,-0.95058 0.0528,-1.42588 -0.13013,-0.3761 -0.21162,-0.77275 -0.39039,-1.12833 -0.36718,-0.73015 -1.01399,-1.41866 -1.59913,-1.9684 -0.6192,-0.58175 -1.63703,-1.38583 -2.33919,-1.85158 -0.50729,-0.33647 -1.04124,-0.63089 -1.56193,-0.94633 -2.89998,-1.516918 -5.93759,-2.764718 -9.01652,-3.868688 -2.18164,-0.764763 -4.40103,-1.416955 -6.62659,-2.040547 -1.74079,-0.488241 -3.46499,-1.035248 -5.24045,-1.384165 -1.18255,-0.192119 -2.37845,-0.275981 -3.57405,-0.329629 -3.09516,-0.137144 -3.28908,4.239981 -0.19387,4.377141 v 0 c 0.98053,0.0429 1.96099,0.10926 2.93248,0.25353 1.6603,0.31767 3.26448,0.86069 4.89434,1.3022 2.12666,0.59537 4.24755,1.21778 6.3327,1.946958 2.81126,1.00272 5.58002,2.14701 8.24052,3.50185 1.16626,0.68848 1.19871,0.65601 2.22083,1.44424 0.758,0.58451 0.71869,0.59214 1.32538,1.15922 0.0652,0.0611 0.11086,0.16847 0.19958,0.17899 0.0516,0.007 0.0289,-0.0999 0.0429,-0.15006 0.10097,-0.31856 0.0971,-0.55821 0.39032,-0.74428 0.17088,-0.1085 0.35777,-0.19563 0.55182,-0.2527 0.0331,-0.009 0.11038,0.0592 0.0771,0.0675 -0.19367,0.0491 -0.39642,0.054 -0.59597,0.0639 -0.31115,0.0154 -0.62304,0.009 -0.93455,0.0132 -0.43101,-0.0255 -0.86335,-0.0335 -1.29298,-0.076 -0.91644,-0.0905 -2.94919,-0.39741 -3.79255,-0.53521 -1.08668,-0.17767 -3.25478,-0.56634 -4.33682,-0.79238 -0.58648,-0.12247 -1.16768,-0.26916 -1.75152,-0.40375 -0.44858,-0.13868 -0.90341,-0.2587 -1.34572,-0.41616 -1.12077,-0.39895 -1.68753,-0.70505 -2.77202,-1.24266 -1.98916,-0.9861 -3.96314,-2.00265 -5.93334,-3.025968 -2.45224,-1.27599 -4.88997,-2.5796 -7.30465,-3.925418 -1.49104,-0.843228 -2.97516,-1.69642 -4.41103,-2.631903 -2.62721,-1.64203 -4.94937,2.073426 -2.32216,3.715431 z" /><rect
       style="opacity:0;fill:#000000;fill-opacity:0;stroke:#000000;stroke-width:2.4536;stroke-dasharray:none;stroke-opacity:0"
       id="rect19945"
       width="15.307194"
       height="10.300167"
       x="351.30701"
       y="89.958153" /><rect
       style="opacity:1;fill:#75bd8a;fill-opacity:0;stroke:#000000;stroke-width:2.4536;stroke-dasharray:none;stroke-opacity:0"
       id="rect21403"
       width="30.471331"
       height="16.165543"
       x="339.004"
       y="83.94973" /></g><g
     inkscape:label="Layer 1"
     inkscape:groupmode="layer"
     id="layer1"
     transform="translate(0.738806,3.69403)"
     style="display:inline"><text
       xml:space="preserve"
       style="font-size:154.567px;fill:#687775;fill-opacity:1;stroke-width:0.438144"
       x="237.88354"
       y="180.19145"
       id="text342"><tspan
         id="tspan340"
         style="font-size:154.567px;fill:#687775;fill-opacity:1;stroke-width:0.438144"
         x="237.88354"
         y="180.19145"
         sodipodi:role="line">EH</tspan></text><text
       xml:space="preserve"
       style="font-size:24.7308px;fill:#687775;fill-opacity:1;stroke-width:0.438144"
       x="253.90593"
       y="213.38089"
       id="text988"><tspan
         sodipodi:role="line"
         id="tspan986"
         style="font-style:normal;font-variant:normal;font-weight:bold;font-stretch:normal;font-size:24.7308px;font-family:'Courier New';-inkscape-font-specification:'Courier New Bold';stroke-width:0.438144"
         x="253.90593"
         y="213.38089">Engineering Hustle</tspan></text><path
       id="path14742"
       style="fill:#a8776c;fill-opacity:1;stroke:none;stroke-width:0.579627;image-rendering:auto"
       d="m 115.45959,118.18732 -5.20307,1.18757 -1.03132,7.89853 0.12224,0.35321 2.8755,5.94347 -6.01817,4.80003 -5.15438,-4.12645 -0.31698,-0.19695 -7.930266,-0.75281 -2.316241,4.80794 5.533647,5.73061 0.352069,0.12444 6.439301,1.45811 v 7.69704 l -6.439301,1.45813 -0.352069,0.12442 -5.533647,5.73062 2.316241,4.80796 7.930266,-0.75284 0.31698,-0.19694 5.15438,-4.12643 6.01817,4.80003 -2.8755,5.94344 -0.12224,0.35209 1.03132,7.89968 5.20307,1.18755 4.35513,-6.67024 0.0429,-0.37018 -0.011,-6.60231 7.50459,-1.71286 2.85397,5.95364 0.19937,0.31472 6.81854,4.11964 4.17288,-3.32833 -2.49852,-7.56346 -0.26378,-0.26489 -5.16908,-4.10721 3.33964,-6.93515 6.43477,1.48078 0.37132,0.0407 7.47063,-2.76343 v -5.33661 l -7.47063,-2.76229 -0.37132,0.0407 -6.43477,1.48078 -3.33964,-6.93517 5.1691,-4.10719 0.26376,-0.26492 2.49852,-7.56459 -4.17287,-3.3272 -6.81853,4.11852 -0.19915,0.31586 -2.85399,5.95363 -7.50459,-1.71284 0.011,-6.60231 -0.0429,-0.37133 z m 4.35513,24.50398 a 6.5721526,6.5721526 0 0 1 6.57288,6.57174 6.5721526,6.5721526 0 0 1 -6.57288,6.5729 6.5721526,6.5721526 0 0 1 -6.57174,-6.5729 6.5721526,6.5721526 0 0 1 6.57174,-6.57174 z" /><path
       id="path14742-9"
       style="display:inline;fill:#a8776c;fill-opacity:1;stroke:none;stroke-width:0.355199"
       d="m 166.95863,141.50157 -3.18849,0.72776 -0.632,4.84027 0.0749,0.21645 1.76212,3.64218 -3.68796,2.94149 -3.15864,-2.52872 -0.19432,-0.12071 -4.85972,-0.46134 -1.4194,2.94633 3.39106,3.51177 0.21578,0.0762 3.94602,0.89355 v 4.71679 l -3.94602,0.89355 -0.21578,0.0762 -3.39106,3.51175 1.4194,2.94635 4.85972,-0.46134 0.19432,-0.12071 3.15864,-2.52872 3.68796,2.9415 -1.76212,3.64218 -0.0749,0.21579 0.632,4.84097 3.18849,0.72774 2.66884,-4.08755 0.0263,-0.22688 -0.007,-4.04593 4.59885,-1.04965 1.74894,3.64845 0.12202,0.19278 4.17845,2.52454 2.55716,-2.03963 -1.53109,-4.63493 -0.16167,-0.16232 -3.16765,-2.51692 2.04656,-4.2499 3.94325,0.90741 0.22756,0.025 4.57804,-1.69345 v -3.27032 l -4.57804,-1.69275 -0.22754,0.025 -3.94327,0.90745 -2.04656,-4.24992 3.16765,-2.5169 0.16167,-0.16234 1.53109,-4.63564 -2.55716,-2.03893 -4.17845,2.52387 -0.12202,0.19344 -1.74894,3.64841 -4.59885,-1.04963 0.007,-4.04593 -0.0263,-0.22755 z m 2.66884,15.01618 a 4.0274547,4.0274547 0 0 1 4.0279,4.02722 4.0274547,4.0274547 0 0 1 -4.0279,4.0279 4.0274547,4.0274547 0 0 1 -4.02722,-4.0279 4.0274547,4.0274547 0 0 1 4.02722,-4.02722 z" /><path
       id="path14742-9-7"
       style="display:inline;fill:#a8776c;fill-opacity:1;stroke:none;stroke-width:0.355199"
       d="m 146.03508,173.34901 -3.18847,0.72773 -0.632,4.84028 0.0749,0.21644 1.76213,3.64221 -3.68796,2.94148 -3.15865,-2.5287 -0.19432,-0.12071 -4.85971,-0.46134 -1.4194,2.94633 3.39103,3.51177 0.21577,0.0762 3.94607,0.89356 v 4.71678 l -3.94607,0.89355 -0.21577,0.0762 -3.39103,3.51174 1.4194,2.94636 4.85971,-0.46134 0.19432,-0.12071 3.15865,-2.52872 3.68796,2.94149 -1.76213,3.64218 -0.0749,0.21578 0.632,4.84098 3.18847,0.72774 2.66884,-4.08758 0.0263,-0.22684 -0.007,-4.04594 4.59886,-1.04964 1.74894,3.64842 0.12202,0.19278 4.17844,2.52456 2.55717,-2.03962 -1.53112,-4.63493 -0.16168,-0.16233 -3.16763,-2.51691 2.04653,-4.2499 3.94328,0.90742 0.22754,0.025 4.57806,-1.69345 v -3.27032 l -4.57806,-1.69275 -0.22754,0.025 -3.94328,0.90741 -2.04653,-4.24989 3.16763,-2.51691 0.16168,-0.16234 1.53112,-4.63563 -2.55717,-2.03892 -4.17844,2.52386 -0.12202,0.19366 -1.74894,3.64842 -4.59886,-1.04963 0.007,-4.04595 -0.0263,-0.22756 z m 2.66884,15.01619 a 4.0274547,4.0274547 0 0 1 4.0279,4.0272 4.0274547,4.0274547 0 0 1 -4.0279,4.02791 4.0274547,4.0274547 0 0 1 -4.02721,-4.02791 4.0274547,4.0274547 0 0 1 4.02721,-4.0272 z" /></g></svg>
